<svg width="159" height="130" viewBox="0 0 159 130" fill="none" xmlns="http://www.w3.org/2000/svg">
<path d="M156.35 26H108.65C107.187 26 106 26.9701 106 28.1667V78H47.7V71.5C47.7 70.3035 46.5135 69.3333 45.05 69.3333H37.1V73.6667H42.4V78H31.8V69.3333H26.5V78H15.9V73.6667H21.2V69.3333H13.25C11.7865 69.3333 10.6 70.3035 10.6 71.5V78H2.65C1.18655 78 0 78.9701 0 80.1667V127.833C0 129.03 1.18655 130 2.65 130H156.35C157.813 130 159 129.03 159 127.833V28.1667C159 26.9701 157.813 26 156.35 26ZM111.3 30.3333H153.7V56.3333H111.3V30.3333ZM106 91H58.3V82.3333H106V91ZM5.3 82.3333H53V91H5.3V82.3333ZM5.3 95.3333H53V125.667H5.3V95.3333ZM58.3 95.3333H79.5V125.667H58.3V95.3333ZM84.8 95.3333H106V125.667H84.8V95.3333ZM111.3 125.667V60.6667H153.7V125.667H111.3Z" fill="#B36A39"/>
<path d="M116.6 39H121.9V47.6667H116.6V39Z" fill="#B36A39"/>
<path d="M116.6 69.3333H121.9V78H116.6V69.3333Z" fill="#B36A39"/>
<path d="M15.9001 86.6667C15.9001 87.8632 14.7136 88.8333 13.2501 88.8333C11.7866 88.8333 10.6001 87.8632 10.6001 86.6667C10.6001 85.4701 11.7866 84.5 13.2501 84.5C14.7136 84.5 15.9001 85.4701 15.9001 86.6667Z" fill="#B36A39"/>
<path d="M26.5 86.6667C26.5 87.8632 25.3134 88.8333 23.85 88.8333C22.3865 88.8333 21.2 87.8632 21.2 86.6667C21.2 85.4701 22.3865 84.5 23.85 84.5C25.3134 84.5 26.5 85.4701 26.5 86.6667Z" fill="#B36A39"/>
<path d="M37.1 86.6667C37.1 87.8632 35.9135 88.8333 34.45 88.8333C32.9866 88.8333 31.8 87.8632 31.8 86.6667C31.8 85.4701 32.9866 84.5 34.45 84.5C35.9135 84.5 37.1 85.4701 37.1 86.6667Z" fill="#B36A39"/>
<path d="M47.6999 86.6667C47.6999 87.8632 46.5134 88.8333 45.0499 88.8333C43.5865 88.8333 42.3999 87.8632 42.3999 86.6667C42.3999 85.4701 43.5865 84.5 45.0499 84.5C46.5134 84.5 47.6999 85.4701 47.6999 86.6667Z" fill="#B36A39"/>
<path d="M2.65 41.1667H55.65C57.1134 41.1667 58.3 40.1965 58.3 39V32.5C58.3 31.9255 58.0205 31.3743 57.5236 30.9681L46.9236 22.3014C46.4268 21.8952 45.7526 21.6667 45.05 21.6667H42.4V2.16667C42.4 0.970133 41.2135 0 39.75 0H18.55C17.0865 0 15.9 0.970133 15.9 2.16667V21.6667H13.25C12.5474 21.6667 11.8732 21.8952 11.3764 22.3014L0.776367 30.9681C0.279492 31.3743 0 31.9255 0 32.5V39C0 40.1965 1.18655 41.1667 2.65 41.1667ZM21.2 4.33333H37.1V21.6667H21.2V4.33333ZM5.3 33.3971L14.3473 26H43.9527L53 33.3971V36.8333H5.3V33.3971Z" fill="#B36A39"/>
<path d="M45.0501 99.6667H13.2501C11.7866 99.6667 10.6001 100.637 10.6001 101.833V119.167C10.6001 120.363 11.7866 121.333 13.2501 121.333H45.0501C46.5135 121.333 47.7001 120.363 47.7001 119.167V101.833C47.7001 100.637 46.5135 99.6667 45.0501 99.6667ZM42.4001 117H15.9001V104H42.4001V117Z" fill="#B36A39"/>
<path d="M76.8501 84.5H87.4501V88.8333H76.8501V84.5Z" fill="#B36A39"/>
<path d="M68.8999 106.167H74.1999V114.833H68.8999V106.167Z" fill="#B36A39"/>
<path d="M90.1001 106.167H95.4001V114.833H90.1001V106.167Z" fill="#B36A39"/>
<path d="M63.6 54.1667H79.5C80.9634 54.1667 82.15 53.1965 82.15 52V49.8333C82.1318 45.8936 78.8659 42.4595 74.2 41.4745V0H68.9V41.4745C64.234 42.4595 60.9681 45.8936 60.95 49.8333V52C60.95 53.1965 62.1365 54.1667 63.6 54.1667ZM71.55 45.5C74.4769 45.5 76.85 47.4403 76.85 49.8333H66.25C66.25 47.4403 68.623 45.5 71.55 45.5Z" fill="#B36A39"/>
<path d="M82.15 36.8333H98.05C99.5135 36.8333 100.7 35.8632 100.7 34.6667V32.5C100.682 28.5602 97.416 25.1261 92.75 24.1412V0H87.45V24.1412C82.784 25.1261 79.5181 28.5602 79.5 32.5V34.6667C79.5 35.8632 80.6865 36.8333 82.15 36.8333ZM90.1 28.1667C93.0269 28.1667 95.4 30.1069 95.4 32.5H84.8C84.8 30.1069 87.1731 28.1667 90.1 28.1667Z" fill="#B36A39"/>
</svg>
