<svg width="159" height="135" viewBox="0 0 159 135" fill="none" xmlns="http://www.w3.org/2000/svg">
<path d="M152.789 0H6.21094C2.78064 0 0 2.36092 0 5.27344V129.727C0 132.639 2.78064 135 6.21094 135H152.789C156.219 135 159 132.639 159 129.727V5.27344C159 2.36092 156.219 0 152.789 0ZM12.4219 72.7734H25.1543C28.5846 72.7734 31.3652 70.4125 31.3652 67.5C31.3652 64.5875 28.5846 62.2266 25.1543 62.2266H12.4219V51.6797H71.7363V83.3203H12.4219V72.7734ZM84.1582 72.7734H95.959C99.3893 72.7734 102.17 70.4125 102.17 67.5C102.17 64.5875 99.3893 62.2266 95.959 62.2266H84.1582V51.6797H146.578V83.3203H84.1582V72.7734ZM146.578 41.1328H84.1582V30.8496H95.959C99.3893 30.8496 102.17 28.4887 102.17 25.5762C102.17 22.6637 99.3893 20.3027 95.959 20.3027H84.1582V10.5469H146.578V41.1328ZM71.7363 10.5469V41.1328H12.4219V30.8496H25.1543C28.5846 30.8496 31.3652 28.4887 31.3652 25.5762C31.3652 22.6637 28.5846 20.3027 25.1543 20.3027H12.4219V10.5469H71.7363ZM12.4219 114.697H25.1543C28.5846 114.697 31.3652 112.336 31.3652 109.424C31.3652 106.511 28.5846 104.15 25.1543 104.15H12.4219V93.8672H71.7363V124.453H12.4219V114.697ZM84.1582 124.453V114.697H95.959C99.3893 114.697 102.17 112.336 102.17 109.424C102.17 106.511 99.3893 104.15 95.959 104.15H84.1582V93.8672H146.578V124.453H84.1582Z" fill="#B36A39"/>
</svg>
