<svg width="286" height="157" viewBox="0 0 286 157" fill="none" xmlns="http://www.w3.org/2000/svg">
<path d="M142.955 33.7228C142.902 33.3801 142.798 33.0067 142.646 32.612C140.776 27.7567 131.597 19.673 118.952 25.8231C120.168 26.1269 136.878 24.3039 142.955 33.7228Z" fill="white"/>
<path d="M185.492 33.7228C188.834 28.0512 198.253 18.8349 208.887 24.9116C199.165 24.9116 197.038 23.9999 185.492 33.7228Z" fill="white"/>
<path d="M115.61 108.162C118.536 108.669 125.303 109.682 128.962 109.682L128.404 83.8556C127.583 83.8556 123.874 83.5517 115.61 82.3364C107.346 81.1211 105.887 90.1348 106.191 94.7936C105.786 96.1779 104.307 98.8452 101.634 98.4397C98.9598 98.0342 93.0249 95.2324 90.3917 93.8821C80.9728 90.2361 77.9344 86.2863 77.3268 85.6786C74.3764 75.0642 72.2489 70.3179 71.5539 69.2715C69.6094 61.4933 57.78 57.5232 52.1084 56.5104C46.9432 55.2951 43.2972 61.6756 44.313 68.36C45.1257 73.7075 41.1386 77.6776 39.0435 78.9942C37.7269 80.1083 35.0329 83.491 34.7898 88.1093C34.5468 92.7276 41.0374 97.2584 44.313 98.9465C44.8746 97.7214 45.5191 96.3286 46.2376 94.7936C47.4812 92.1372 48.9467 89.0549 50.5893 85.6786C54.9645 76.6852 61.9324 79.7032 64.8695 82.3364C69.4369 86.0432 74.5435 89.4286 79.7574 92.452C93.6895 100.531 108.388 106.025 115.61 108.162Z" fill="white"/>
<path d="M114.091 29.7728C93.43 29.6715 48.3972 30.2085 33.5745 29.7728C32.4287 33.9252 31.7259 45.958 43.0667 47.1733C46.9818 47.0721 56.5444 42.9594 58.489 41.0148C60.9197 38.5842 68.628 38.8546 75.92 46.1467C81.7536 51.9803 98.59 55.0925 104.667 56.5104C110.78 56.5104 117.98 54.6874 123.814 48.6107C126.06 46.4877 130.334 41.1466 129.462 36.7668C124.517 36.4775 119.055 34.6242 114.091 29.7728Z" fill="white"/>
<path d="M142.5 38.5841C138.246 41.6225 129.647 51.0414 134.752 60.7641C139.856 70.4868 148.45 69.2715 152.108 67.4485C148.683 60.1613 143.836 48.2958 142.685 40.2223C142.605 39.6567 142.542 39.1097 142.5 38.5841Z" fill="white"/>
<path d="M6.22934 76.8674C3.89994 76.7661 0.0311069 78.5688 3.19099 86.5901L6.22934 92.452L9.26771 86.5901C10.5843 83.3492 11.8199 76.8674 6.22934 76.8674Z" fill="white"/>
<path d="M159.058 72.3099C159.666 71.0945 162.34 71.7629 163.312 73.2214C164.284 74.6798 165.338 73.829 165.743 73.2214C166.553 72.6137 168.538 71.5807 169.996 72.3099C171.82 73.2214 169.085 78.3866 165.743 76.5635C163.73 75.4655 162.907 76.0572 162.704 76.5635C161.287 77.4751 158.147 75.652 159.058 72.3099Z" fill="white"/>
<path fill-rule="evenodd" clip-rule="evenodd" d="M147.513 20.0501C146.054 20.7794 143.867 22.9872 142.955 23.9999C142.712 26.2691 142.391 30.5097 142.646 32.612C142.798 33.0067 142.902 33.3801 142.955 33.7228C142.46 34.9379 142.339 36.6093 142.5 38.5841C142.542 39.1097 142.605 39.6567 142.685 40.2223C143.836 48.2958 148.683 60.1613 152.108 67.4485C152.412 68.094 152.704 68.7036 152.982 69.2715C150.551 73.6467 153.994 79.8044 156.02 82.3364C158.046 84.6658 163.92 88.2308 171.212 83.8556C178.504 79.4804 177.491 72.3099 176.073 69.2715C182.636 60.7641 185.087 42.0276 185.492 33.7228C185.657 31.2875 184.953 25.6185 184.581 23.0884C184.337 21.873 182.049 20.1514 180.935 19.4425C180.228 18.9564 172.943 16.2016 169.389 14.885H159.97C154.136 15.8573 149.234 18.7336 147.513 20.0501ZM147.513 30.6845C166.654 32.612 159.97 53.776 154.501 67.1447C151.557 62.4616 148.134 52.2778 146.477 44.6609C146.293 43.8154 146.131 43.0015 145.994 42.2303C145.828 41.3028 146.134 43.1233 145.994 42.2303C145.39 38.4036 146.601 33.1152 147.513 30.6845ZM174.858 67.1447C172.934 55.8016 161.729 31.4278 182.693 28.6933C183.301 31.124 182.837 35.733 182.693 39.9867C182.673 40.5776 182.697 43.4302 182.638 44.0533C181.848 52.3999 177.727 63.2716 174.858 67.1447ZM163.312 83.2479C155.777 82.5187 153.589 73.2214 155.412 69.2715C157.539 65.3216 160.578 64.714 167.87 65.3216C173.395 65.7821 174.655 71.6009 174.554 73.2214C174.858 76.8674 170.847 83.9771 163.312 83.2479Z" fill="white"/>
<path d="M33.5745 138.546H44.8164C44.69 137.003 44.5168 134.996 44.313 132.773L32.4741 135.811L33.5745 138.546Z" fill="white"/>
<path d="M13.5214 138.546H25.6748L27.0611 130.342L13.5214 132.773V138.546Z" fill="white"/>
<path d="M129.586 138.546L129.462 132.773L115.61 135.811V138.546H129.586Z" fill="white"/>
<path d="M129.586 138.546H142.955L143.867 130.342L129.462 132.773L129.586 138.546Z" fill="white"/>
<path d="M151.159 41.0149C148.485 37.612 146.601 40.4073 145.994 42.2303C146.131 43.0015 146.293 43.8154 146.477 44.6609C149.152 44.8635 153.832 44.4179 151.159 41.0149Z" fill="white"/>
<path d="M182.693 39.9867C181.275 38.7713 178.261 39.0704 177.289 41.0149C176.073 43.4456 178.873 44.9648 182.638 44.0533C182.697 43.4302 182.673 40.5776 182.693 39.9867Z" fill="white"/>
<path d="M21.4211 77.7787C22.3933 85.0708 16.5597 93.5781 13.5214 96.9203V132.773M21.4211 77.7787C20.2057 68.6637 8.0148 55.6981 13.5214 42.8377C15.2014 38.914 15.9521 37.3689 19.5521 33.7228C22.6597 31.5329 27.1778 29.5847 33.5745 29.7728M21.4211 77.7787C26.8901 86.2859 25.9786 95.7051 23.5479 102.39C21.6034 107.737 22.7377 112.112 23.5479 113.631L28.011 124.721M33.5745 29.7728C48.3972 30.2085 93.43 29.6715 114.091 29.7728M33.5745 29.7728C32.4287 33.9252 31.7259 45.958 43.0667 47.1733C46.9818 47.0721 56.5444 42.9594 58.489 41.0148C60.9197 38.5842 68.628 38.8546 75.92 46.1467C81.7536 51.9803 98.59 55.0925 104.667 56.5104C110.78 56.5104 117.98 54.6874 123.814 48.6107C126.06 46.4877 130.334 41.1466 129.462 36.7668M33.5745 29.7728C12.9137 29.1654 8.05237 30.6845 6.5332 42.5341L6.22934 76.8674M114.091 29.7728C112.673 28.2536 109.959 24.7899 110.445 23.0884C111.052 20.9616 135.359 9.11202 142.955 23.9999M114.091 29.7728C119.055 34.6242 124.517 36.4775 129.462 36.7668M142.955 23.9999C143.867 22.9872 146.054 20.7794 147.513 20.0502M142.955 23.9999C142.712 26.2691 142.391 30.5097 142.646 32.612M147.513 20.0502C146.601 14.7837 146.601 6.11712 149.032 3.33922C149.741 2.52899 151.219 2.79231 153.893 7.89674C156.567 13.0012 159.261 14.4799 159.97 14.885M147.513 20.0502C149.234 18.7336 154.136 15.8573 159.97 14.885M159.97 14.885H169.389M169.389 14.885C172.427 13.062 174.647 7.72981 176.073 5.16239C177.592 2.42779 177.592 1.31373 178.808 2.42779C179.618 5.1623 182.393 14.095 180.935 19.4425M169.389 14.885C172.943 16.2016 180.228 18.9564 180.935 19.4425M180.935 19.4425C182.049 20.1514 184.337 21.873 184.581 23.0884M184.581 23.0884C189.239 17.4168 202.385 9.47652 217.699 23.0884C214.458 31.1907 203.479 44.6608 185.492 33.7228M184.581 23.0884C184.953 25.6185 185.657 31.2875 185.492 33.7228M185.492 33.7228C185.087 42.0276 182.636 60.7641 176.073 69.2715C177.491 72.3099 178.504 79.4804 171.212 83.8556C163.92 88.2308 158.046 84.6658 156.02 82.3364M185.492 33.7228C188.834 28.0512 198.253 18.8349 208.887 24.9116C199.165 24.9116 197.038 23.9999 185.492 33.7228ZM156.02 82.3364C153.994 79.8044 150.551 73.6467 152.982 69.2715C152.704 68.7036 152.412 68.094 152.108 67.4485M156.02 82.3364C155.818 84.6658 153.832 90.9653 147.513 97.5282M142.955 33.7228C136.878 24.3039 120.168 26.1269 118.952 25.8231C131.597 19.673 140.776 27.7567 142.646 32.612M142.955 33.7228C140.188 35.3507 135.169 37.1008 129.462 36.7668M142.955 33.7228C142.902 33.3801 142.798 33.0067 142.646 32.612M142.955 33.7228C142.46 34.9379 142.339 36.6093 142.5 38.5841M142.955 33.7228C142.328 35.2613 142.302 37.5311 142.685 40.2223M142.955 33.7228C142.809 33.5285 142.71 33.1369 142.646 32.612M145.994 42.2303C145.39 38.4036 146.601 33.1152 147.513 30.6845C166.654 32.612 159.97 53.776 154.501 67.1447C151.557 62.4616 148.134 52.2778 146.477 44.6609M145.994 42.2303C146.134 43.1233 145.828 41.3028 145.994 42.2303ZM145.994 42.2303C146.601 40.4073 148.485 37.612 151.159 41.0149C153.832 44.4179 149.152 44.8635 146.477 44.6609M145.994 42.2303C146.131 43.0015 146.293 43.8154 146.477 44.6609M182.693 39.9867C182.837 35.733 183.301 31.124 182.693 28.6933C161.729 31.4278 172.934 55.8016 174.858 67.1447C177.727 63.2716 181.848 52.3999 182.638 44.0533M182.693 39.9867C181.275 38.7713 178.261 39.0704 177.289 41.0149C176.073 43.4456 178.873 44.9648 182.638 44.0533M182.693 39.9867C182.673 40.5776 182.697 43.4302 182.638 44.0533M147.513 97.5282L143.867 130.342M147.513 97.5282L148.692 80.8172M129.586 138.546H142.955L143.867 130.342M129.586 138.546L129.462 132.773M129.586 138.546H115.61M128.404 73.2214V83.8556M129.462 132.773L143.867 130.342M129.462 132.773L115.61 135.811V138.546M129.462 132.773L128.962 109.682M115.61 138.546V108.162M115.61 108.162C118.536 108.669 125.303 109.682 128.962 109.682M115.61 108.162C108.388 106.025 93.6895 100.531 79.7574 92.452M128.962 109.682L128.404 83.8556M32.4741 135.811L33.5745 138.546H44.8164C44.69 137.003 44.5168 134.996 44.313 132.773M32.4741 135.811L44.313 132.773M32.4741 135.811L28.011 124.721M44.313 132.773C43.7006 126.092 42.8114 117.461 42.0819 113.631C41.1096 108.527 41.6768 105.023 42.0819 103.909C42.4947 102.959 43.2577 101.249 44.313 98.9465M28.011 124.721L27.0611 130.342M13.5214 132.773V138.546H25.6748L27.0611 130.342M13.5214 132.773L27.0611 130.342M46.2376 94.7936C47.4812 92.1372 48.9467 89.0549 50.5893 85.6786C54.9645 76.6852 61.9324 79.7032 64.8695 82.3364C69.4369 86.0432 74.5435 89.4286 79.7574 92.452M46.2376 94.7936C46.9106 94.5911 48.0547 94.6721 47.2471 96.6167C46.2376 99.0473 41.886 105.732 46.2376 106.643C49.7189 107.372 51.6021 104.111 52.1084 102.39C53.1212 99.4524 55.8152 95.3405 58.489 102.39C61.1627 109.438 64.4644 109.175 65.781 108.162C66.9964 107.96 69.1232 106.279 67.9079 101.174C66.6925 96.0697 69.8322 97.2243 71.5539 98.4397C73.1744 99.9588 76.9622 102.633 79.1498 101.174C81.3374 99.7158 81.4792 97.5282 81.2766 96.6167C81.1753 95.466 80.7297 93.0221 79.7574 92.452M46.2376 94.7936C45.5191 96.3286 44.8746 97.7214 44.313 98.9465M44.313 98.9465C41.0374 97.2584 34.5468 92.7276 34.7898 88.1093C35.0329 83.491 37.7269 80.1083 39.0435 78.9942C41.1386 77.6776 45.1257 73.7075 44.313 68.36C43.2972 61.6756 46.9433 55.2951 52.1084 56.5104C57.78 57.5232 69.6094 61.4933 71.5539 69.2715C72.2489 70.3179 74.3764 75.0642 77.3268 85.6786C77.9344 86.2863 80.9728 90.2361 90.3917 93.8821C93.0249 95.2324 98.9598 98.0342 101.634 98.4397C104.307 98.8452 105.786 96.1779 106.191 94.7936C105.887 90.1348 107.346 81.1211 115.61 82.3364C123.874 83.5517 127.583 83.8556 128.404 83.8556M142.5 38.5841C138.246 41.6225 129.647 51.0414 134.752 60.7641C139.856 70.4868 148.45 69.2715 152.108 67.4485M142.5 38.5841C142.542 39.1097 142.605 39.6567 142.685 40.2223M152.108 67.4485C148.683 60.1613 143.836 48.2958 142.685 40.2223M6.22934 76.8674C3.89994 76.7661 0.031107 78.5688 3.19099 86.5901L6.22934 92.452L9.26771 86.5901C10.5843 83.3492 11.8199 76.8674 6.22934 76.8674ZM155.412 69.2715C153.589 73.2214 155.777 82.5187 163.312 83.2479C170.847 83.9771 174.858 76.8674 174.554 73.2214C174.655 71.6009 173.395 65.7821 167.87 65.3216C160.578 64.714 157.539 65.3216 155.412 69.2715ZM159.058 72.3099C159.666 71.0945 162.34 71.7629 163.312 73.2214C164.284 74.6798 165.338 73.829 165.743 73.2214C166.553 72.6137 168.538 71.5807 169.996 72.3099C171.82 73.2214 169.085 78.3866 165.743 76.5635C163.73 75.4655 162.907 76.0572 162.704 76.5635C161.287 77.4751 158.147 75.652 159.058 72.3099Z" stroke="white" stroke-width="2.05333"/>
<path d="M211.56 82.8H206.587C206.467 82.8 206.4 82.7332 206.387 82.5995L201.534 54.3862C201.508 54.2793 201.548 54.2258 201.655 54.2258H206.267C206.374 54.2258 206.44 54.2793 206.467 54.3862L209.094 72.9344L211.801 54.3862C211.828 54.2793 211.908 54.2258 212.042 54.2258H215.751C215.858 54.2258 215.925 54.2793 215.952 54.3862L218.619 72.9344L221.286 54.3862C221.312 54.2793 221.379 54.2258 221.486 54.2258H226.058C226.192 54.2258 226.245 54.2793 226.218 54.3862L221.326 82.5995C221.312 82.653 221.272 82.6998 221.205 82.7399L221.125 82.8H216.152C216.072 82.8 216.005 82.7332 215.952 82.5995L213.846 67.8612L211.761 82.5995C211.747 82.7332 211.681 82.8 211.56 82.8ZM235.382 83.2011C233.925 83.2011 232.582 82.8268 231.352 82.0782C230.135 81.3296 229.153 80.3336 228.404 79.0904C227.669 77.8338 227.301 76.4569 227.301 74.9597L227.341 61.9459C227.341 60.4219 227.709 59.0517 228.444 57.8352C229.166 56.6053 230.142 55.6228 231.372 54.8875C232.602 54.1389 233.938 53.7646 235.382 53.7646C236.879 53.7646 238.223 54.1323 239.413 54.8675C240.616 55.6027 241.578 56.592 242.3 57.8352C243.035 59.0651 243.403 60.4353 243.403 61.9459L243.443 74.9597C243.443 76.4569 243.082 77.8271 242.36 79.0704C241.625 80.327 240.649 81.3296 239.433 82.0782C238.216 82.8268 236.866 83.2011 235.382 83.2011ZM235.382 78.2482C236.211 78.2482 236.933 77.914 237.548 77.2456C238.163 76.5639 238.47 75.8019 238.47 74.9597L238.43 61.9459C238.43 61.0369 238.143 60.2682 237.568 59.6399C236.993 59.0116 236.264 58.6974 235.382 58.6974C234.54 58.6974 233.818 59.0049 233.217 59.6198C232.615 60.2348 232.314 61.0101 232.314 61.9459V74.9597C232.314 75.8553 232.615 76.6307 233.217 77.2857C233.818 77.9274 234.54 78.2482 235.382 78.2482ZM251.364 82.8H246.712C246.605 82.8 246.551 82.7332 246.551 82.5995L246.631 54.3862C246.631 54.2793 246.685 54.2258 246.792 54.2258H255.093C256.577 54.2258 257.941 54.5868 259.184 55.3086C260.427 56.0305 261.416 56.9997 262.152 58.2162C262.9 59.4327 263.275 60.8096 263.275 62.3469C263.275 63.3495 263.121 64.2586 262.813 65.074C262.506 65.8895 262.145 66.5779 261.731 67.1394C261.33 67.7008 260.962 68.1152 260.628 68.3826C262.112 70.0269 262.854 71.9586 262.854 74.1777L262.894 82.5995C262.894 82.7332 262.827 82.8 262.693 82.8H258.041C257.934 82.8 257.881 82.7599 257.881 82.6797V74.1777C257.881 73.1884 257.533 72.3329 256.838 71.611C256.143 70.8891 255.287 70.5282 254.271 70.5282H251.564L251.524 82.5995C251.524 82.7332 251.471 82.8 251.364 82.8ZM255.093 59.1386H251.564V65.5954H255.093C255.936 65.5954 256.684 65.2812 257.339 64.6529C258.008 64.0246 258.342 63.256 258.342 62.3469C258.342 61.478 258.021 60.7294 257.379 60.1011C256.738 59.4594 255.976 59.1386 255.093 59.1386ZM271.175 82.8H266.523C266.416 82.8 266.363 82.7332 266.363 82.5995L266.443 54.4264C266.443 54.2927 266.496 54.2258 266.603 54.2258H271.215C271.322 54.2258 271.376 54.2927 271.376 54.4264V64.1516L277.812 54.3862C277.919 54.2793 278.02 54.2258 278.113 54.2258H282.825C282.946 54.2258 282.972 54.2793 282.906 54.3862L275.807 65.7157L283.768 82.6396C283.835 82.7466 283.768 82.8 283.567 82.8H278.554C278.421 82.8 278.34 82.7466 278.314 82.6396L272.759 70.5683L271.336 72.8141V82.5995C271.336 82.7332 271.282 82.8 271.175 82.8Z" fill="white"/>
<path d="M185.136 132.481C183.679 132.481 182.335 132.107 181.105 131.358C179.889 130.609 178.913 129.614 178.178 128.37C177.456 127.114 177.095 125.737 177.095 124.24V122.355C177.095 122.208 177.162 122.134 177.295 122.134H181.907C182.014 122.134 182.068 122.208 182.068 122.355V124.24C182.068 125.135 182.369 125.911 182.97 126.566C183.572 127.207 184.294 127.528 185.136 127.528C185.991 127.528 186.72 127.201 187.321 126.546C187.923 125.877 188.224 125.109 188.224 124.24C188.224 123.237 187.569 122.361 186.259 121.613C186.045 121.479 185.764 121.319 185.417 121.132C185.082 120.931 184.681 120.704 184.213 120.45C183.746 120.196 183.291 119.948 182.85 119.708C182.409 119.454 181.981 119.213 181.567 118.986C180.069 118.104 178.953 117.001 178.218 115.677C177.496 114.341 177.135 112.843 177.135 111.186C177.135 109.662 177.509 108.285 178.258 107.055C179.007 105.838 179.982 104.876 181.186 104.167C182.402 103.446 183.719 103.085 185.136 103.085C186.593 103.085 187.93 103.446 189.146 104.167C190.363 104.903 191.332 105.879 192.054 107.095C192.789 108.312 193.157 109.675 193.157 111.186V114.554C193.157 114.661 193.103 114.715 192.996 114.715H188.384C188.277 114.715 188.224 114.661 188.224 114.554L188.184 111.186C188.184 110.223 187.883 109.441 187.281 108.84C186.68 108.238 185.965 107.937 185.136 107.937C184.294 107.937 183.572 108.258 182.97 108.9C182.369 109.541 182.068 110.303 182.068 111.186C182.068 112.081 182.255 112.83 182.629 113.432C183.017 114.033 183.719 114.608 184.735 115.156C184.842 115.209 185.089 115.343 185.477 115.557C185.864 115.771 186.292 116.012 186.76 116.279C187.241 116.533 187.676 116.767 188.063 116.981C188.451 117.181 188.685 117.302 188.765 117.342C190.129 118.104 191.205 119.039 191.994 120.149C192.796 121.259 193.197 122.622 193.197 124.24C193.197 125.804 192.836 127.207 192.114 128.451C191.379 129.694 190.403 130.676 189.186 131.398C187.97 132.12 186.62 132.481 185.136 132.481ZM203.965 132.08H199.333C199.212 132.08 199.152 132.013 199.152 131.879V108.459H193.818C193.685 108.459 193.618 108.392 193.618 108.258L193.658 103.666C193.658 103.559 193.711 103.506 193.818 103.506H209.419C209.566 103.506 209.639 103.559 209.639 103.666V108.258C209.639 108.392 209.586 108.459 209.479 108.459H204.085L204.125 131.879C204.125 132.013 204.072 132.08 203.965 132.08ZM207.775 131.879L212.868 103.666C212.895 103.559 212.961 103.506 213.068 103.506H219.024C219.131 103.506 219.198 103.559 219.224 103.666L224.117 131.879C224.13 132.013 224.077 132.08 223.957 132.08H219.405C219.271 132.08 219.198 132.013 219.184 131.879L218.743 128.872H213.149L212.707 131.879C212.694 132.013 212.627 132.08 212.507 132.08H207.935C207.828 132.08 207.775 132.013 207.775 131.879ZM215.815 112.95L213.971 124.48H217.921L216.237 112.95L215.996 111.426L215.815 112.95ZM232.96 132.08H228.328C228.208 132.08 228.148 132.013 228.148 131.879V108.459H222.814C222.68 108.459 222.613 108.392 222.613 108.258L222.653 103.666C222.653 103.559 222.707 103.506 222.814 103.506H238.414C238.561 103.506 238.635 103.559 238.635 103.666V108.258C238.635 108.392 238.581 108.459 238.474 108.459H233.08L233.12 131.879C233.12 132.013 233.067 132.08 232.96 132.08ZM245.493 132.08H240.84C240.707 132.08 240.64 132.013 240.64 131.879L240.68 103.666C240.68 103.559 240.734 103.506 240.84 103.506H245.452C245.559 103.506 245.613 103.559 245.613 103.666L245.653 131.879C245.653 132.013 245.6 132.08 245.493 132.08ZM256.862 132.481C255.405 132.481 254.061 132.107 252.832 131.358C251.615 130.609 250.633 129.614 249.884 128.37C249.149 127.114 248.781 125.737 248.781 124.24L248.821 111.226C248.821 109.702 249.189 108.332 249.924 107.115C250.646 105.885 251.622 104.903 252.852 104.167C254.082 103.419 255.418 103.045 256.862 103.045C258.359 103.045 259.703 103.412 260.893 104.147C262.096 104.883 263.058 105.872 263.78 107.115C264.515 108.345 264.883 109.715 264.883 111.226L264.923 124.24C264.923 125.737 264.562 127.107 263.84 128.35C263.105 129.607 262.129 130.609 260.913 131.358C259.696 132.107 258.346 132.481 256.862 132.481ZM256.862 127.528C257.691 127.528 258.413 127.194 259.028 126.526C259.643 125.844 259.95 125.082 259.95 124.24L259.91 111.226C259.91 110.317 259.623 109.548 259.048 108.92C258.473 108.292 257.744 107.977 256.862 107.977C256.02 107.977 255.298 108.285 254.696 108.9C254.095 109.515 253.794 110.29 253.794 111.226V124.24C253.794 125.135 254.095 125.911 254.696 126.566C255.298 127.207 256.02 127.528 256.862 127.528ZM272.503 132.08H268.392C268.178 132.08 268.071 131.986 268.071 131.799L268.031 103.827C268.031 103.613 268.138 103.506 268.352 103.506H272.062L279 119.688L278.799 103.827C278.799 103.613 278.919 103.506 279.16 103.506H283.231C283.391 103.506 283.471 103.613 283.471 103.827L283.511 131.839C283.511 132 283.444 132.08 283.311 132.08H279.701L272.583 116.961L272.884 131.759C272.884 131.973 272.757 132.08 272.503 132.08Z" fill="white"/>
</svg>
