<svg width="165" height="135" viewBox="0 0 165 135" fill="none" xmlns="http://www.w3.org/2000/svg">
<path d="M82.4999 32.284C93.3277 32.284 102.137 25.0424 102.137 16.142C102.137 7.24167 93.3277 0 82.4999 0C71.6722 0 62.8633 7.24167 62.8633 16.142C62.8633 25.0424 71.6722 32.284 82.4999 32.284ZM82.4999 7.93401C88.0055 7.93401 92.485 11.6158 92.485 16.142C92.485 20.6682 88.0055 24.3496 82.4999 24.3496C76.9944 24.3496 72.5149 20.6678 72.5149 16.1416C72.5149 11.6154 76.9944 7.93401 82.4999 7.93401Z" fill="#B36A39"/>
<path d="M52.8786 78.9546H112.122C114.787 78.9546 116.948 77.1785 116.948 74.9873V51.1867C116.948 44.293 111.603 38.1967 103.647 36.0174C103.61 36.0074 98.3108 34.6702 98.3108 34.6702C95.8558 34.05 93.2403 35.1209 92.3608 37.1039L86.6697 49.9399C86.6697 49.9399 84.878 43.4943 84.7942 43.3522L88.3408 38.3027C88.7969 37.6528 88.7969 36.8522 88.3408 36.2024C87.8847 35.5525 87.0408 35.1524 86.128 35.1524H78.8725C77.9597 35.1524 77.1158 35.5525 76.6597 36.2024C76.2036 36.8522 76.2036 37.6528 76.6597 38.3027L80.2064 43.3522C80.123 43.4947 78.3308 49.9399 78.3308 49.9399L72.6397 37.1039C71.7597 35.1209 69.1447 34.0486 66.6897 34.6702C66.6897 34.6702 61.3903 36.0074 61.3536 36.0174C53.3975 38.1972 48.0525 44.293 48.0525 51.1867V74.9873C48.0525 77.1781 50.2136 78.9546 52.8786 78.9546ZM99.8603 43.3596L100.644 43.5573C104.625 44.667 107.295 47.7273 107.295 51.1862V71.0196H87.5958L99.8603 43.3596ZM57.7047 51.1862C57.7047 47.7273 60.3758 44.667 64.3558 43.5573L65.1397 43.3596L77.4036 71.0196H57.7042L57.7047 51.1862Z" fill="#B36A39"/>
<path d="M19.6361 40.5346C30.4639 40.5346 39.2728 33.2933 39.2728 24.393C39.2728 15.4926 30.4639 8.25098 19.6361 8.25098C8.80833 8.25098 0 15.4926 0 24.393C0 33.2933 8.80889 40.5346 19.6361 40.5346ZM19.6361 16.1854C25.1417 16.1854 29.6211 19.8672 29.6211 24.3935C29.6211 28.9188 25.1422 32.601 19.6361 32.601C14.1311 32.601 9.65167 28.9192 9.65167 24.3935C9.65222 19.8672 14.1311 16.1854 19.6361 16.1854Z" fill="#B36A39"/>
<path d="M53.0616 84.9084H37.4216V56.9757C37.4216 48.9143 29.4427 42.3553 19.6361 42.3553C9.82941 42.3553 1.85107 48.9138 1.85107 56.9752V94.0097C1.85107 101.75 9.51107 108.046 18.9266 108.046H39.2194V131.033C39.2194 133.224 41.38 135 44.0455 135H62.7816C65.4472 135 67.6077 133.224 67.6077 131.033V96.8663C67.6083 90.2727 61.0827 84.9084 53.0616 84.9084ZM57.9561 127.066H48.8716V104.08C48.8716 101.888 46.7111 100.112 44.0455 100.112H18.9272C14.8339 100.112 11.5033 97.375 11.5033 94.0097V56.9752C11.5033 53.2889 15.1516 50.2894 19.6361 50.2894C24.1211 50.2894 27.7694 53.2889 27.7694 56.9752V88.8752C27.7694 91.0664 29.93 92.8424 32.5955 92.8424H53.0611C55.76 92.8424 57.9561 94.6472 57.9561 96.8663V127.066Z" fill="#B36A39"/>
<path d="M145.364 40.5346C156.191 40.5346 165 33.2933 165 24.393C165 15.4926 156.191 8.25098 145.364 8.25098C134.536 8.25098 125.727 15.4926 125.727 24.393C125.727 33.2933 134.536 40.5346 145.364 40.5346ZM145.364 16.1854C150.869 16.1854 155.348 19.8672 155.348 24.3935C155.348 28.9188 150.869 32.601 145.364 32.601C139.858 32.601 135.379 28.9192 135.379 24.3935C135.379 19.8672 139.858 16.1854 145.364 16.1854Z" fill="#B36A39"/>
<path d="M145.363 42.3553C135.557 42.3553 127.578 48.9143 127.578 56.9757V84.9084H111.939C103.917 84.9084 97.3921 90.2727 97.3921 96.8663V131.033C97.3921 133.224 99.5526 135 102.218 135H120.954C123.62 135 125.78 133.224 125.78 131.033V108.046H146.073C155.489 108.046 163.149 101.75 163.149 94.0097V56.9752C163.149 48.9138 155.17 42.3553 145.363 42.3553ZM153.497 94.0097C153.497 97.3746 150.167 100.112 146.073 100.112H120.954C118.288 100.112 116.128 101.888 116.128 104.08V127.066H107.043V96.8663C107.043 94.6477 109.239 92.8424 111.938 92.8424H132.404C135.069 92.8424 137.23 91.0664 137.23 88.8752V56.9752C137.23 53.2889 140.878 50.2894 145.363 50.2894C149.848 50.2894 153.496 53.2889 153.496 56.9752V94.0097H153.497Z" fill="#B36A39"/>
</svg>
