<svg width="159" height="130" viewBox="0 0 159 130" fill="none" xmlns="http://www.w3.org/2000/svg">
<path d="M140.923 44.2909H125.976V3.82502C125.976 1.71263 123.986 0 121.531 0H37.4689C35.014 0 33.0241 1.71263 33.0241 3.82502V44.2909H18.0769C8.10899 44.2909 0 51.2693 0 59.8475V100.976C0 109.554 8.10899 116.532 18.0769 116.532H32.1668V126.175C32.1668 128.287 34.1566 130 36.6115 130H122.389C124.844 130 126.834 128.287 126.834 126.175V116.532H140.924C150.891 116.532 159.001 109.554 159.001 100.976V59.8475C159 51.2693 150.891 44.2909 140.923 44.2909ZM150.11 100.977C150.11 105.336 145.989 108.882 140.923 108.882H126.833V77.716C126.833 75.6034 124.843 73.891 122.388 73.891H36.6113C34.1564 73.891 32.1665 75.6034 32.1665 77.716V108.882H18.0769C13.0107 108.882 8.88944 105.335 8.88944 100.976V70.0349H150.111L150.11 100.977ZM41.9136 7.65004H117.086V44.2909H41.9136V7.65004ZM8.88944 59.8475C8.88944 55.4879 13.0107 51.941 18.0769 51.941H140.923C145.99 51.941 150.111 55.4876 150.111 59.8475V62.3851H8.88944V59.8475ZM117.944 122.35H41.056V81.5408H117.944V122.35Z" fill="#B36A39"/>
<path d="M139.133 53.3377C137.963 53.3377 136.818 53.7458 135.989 54.4597C135.163 55.1704 134.688 56.1553 134.688 57.1625C134.688 58.1698 135.163 59.1546 135.989 59.8688C136.818 60.5795 137.963 60.9876 139.133 60.9876C140.3 60.9876 141.448 60.5795 142.274 59.8688C143.104 59.1549 143.578 58.1698 143.578 57.1625C143.578 56.1553 143.104 55.1704 142.274 54.4597C141.448 53.7458 140.3 53.3377 139.133 53.3377Z" fill="#B36A39"/>
<path d="M52.5941 97.5977H104.639C107.093 97.5977 109.083 95.8851 109.083 93.7727C109.083 91.6601 107.093 89.9477 104.639 89.9477H52.5941C50.1395 89.9477 48.1494 91.6601 48.1494 93.7727C48.1494 95.8853 50.1395 97.5977 52.5941 97.5977Z" fill="#B36A39"/>
<path d="M52.5941 113.943H76.9068C79.3617 113.943 81.3515 112.231 81.3515 110.118C81.3515 108.006 79.3617 106.293 76.9068 106.293H52.5941C50.1395 106.293 48.1494 108.006 48.1494 110.118C48.1494 112.231 50.1395 113.943 52.5941 113.943Z" fill="#B36A39"/>
</svg>
