<svg width="159" height="107" viewBox="0 0 159 107" fill="none" xmlns="http://www.w3.org/2000/svg">
<path d="M154.472 40.7543C152.778 38.9703 150.808 37.5829 148.63 36.7106V35.6799C148.63 6.18452 136.048 0 125.541 0H35.6713C17.0061 0 10.3696 18.5138 10.3696 35.8386V36.6712C8.26097 37.5829 6.29076 38.9309 4.59728 40.6751C0 45.4324 0 50.6655 0 55.2641V82.6979C0 95.4237 10.0238 107 21.0502 107H140.127C150.532 107 159 96.0979 159 82.6979V55.502C159 46.8199 158.101 44.6791 154.472 40.7543ZM82.9565 7.92875H125.541C132.488 7.92875 141.717 10.7831 141.717 35.6004C139.885 35.7193 138.053 36.1951 136.36 37.0276C131.071 39.6441 127.891 45.1942 127.891 51.8151V64.2633C127.891 65.1356 127.96 66.0075 128.03 66.8798C128.03 67.0385 128.064 67.1968 128.064 67.3953L82.9565 67.4351V7.92875ZM35.6713 7.92875H76.0435V67.3953L31.8692 67.4351C31.5928 67.1972 31.1087 65.9287 31.1087 64.2636V51.498C31.1087 44.8775 28.1015 39.3668 23.0551 36.7901C21.2232 35.8784 19.253 35.4027 17.2828 35.3231C17.3518 26.7599 19.3564 7.92875 35.6713 7.92875ZM152.087 82.7377C152.087 90.627 147.524 99.1107 140.127 99.1107H21.0502C13.9299 99.1107 6.91293 90.9834 6.91293 82.7377V55.3039C6.91293 50.9431 7.01663 48.8815 9.22891 46.582C11.2681 44.481 13.9299 43.2916 16.6603 43.2519C17.9047 43.2519 19.1143 43.5295 20.255 44.0844C22.0525 44.9961 24.1954 47.0577 24.1954 51.5374V64.2633C24.1954 70.6856 27.341 75.324 31.6962 75.324H129.481C131.59 75.324 132.868 74.2934 133.56 73.4211C135.254 71.3201 135.046 68.5051 134.908 66.2454C134.873 65.6109 134.804 64.9371 134.804 64.3027V51.8545C134.804 47.1763 137.5 45.1544 139.09 44.3617C142.685 42.6568 146.833 43.5291 149.702 46.5816C151.845 48.8811 152.087 49.1584 152.087 55.5808V82.7377H152.087Z" fill="#B36A39"/>
</svg>
