<svg width="159" height="130" viewBox="0 0 159 130" fill="none" xmlns="http://www.w3.org/2000/svg">
<path d="M156.056 115.556H147.222V113.148C147.22 111.233 146.288 109.398 144.632 108.044C142.976 106.69 140.731 105.928 138.389 105.926H114.735C116.039 104.518 116.946 102.892 117.39 101.164C117.835 99.4365 117.806 97.6496 117.306 95.9318L111.84 77.037H115.555C116.219 77.0347 116.864 77.2169 117.385 77.5537C117.906 77.8904 118.272 78.3619 118.422 78.8907L120.121 84.8082C120.273 85.3364 120.638 85.8073 121.158 86.1446C121.678 86.4819 122.322 86.6658 122.985 86.6667C123.213 86.6663 123.439 86.645 123.661 86.6031C124.037 86.5309 124.393 86.3988 124.707 86.2143C125.021 86.0298 125.287 85.7965 125.491 85.5277C125.695 85.259 125.832 84.9601 125.894 84.6481C125.957 84.336 125.943 84.017 125.855 83.7092L124.155 77.7918C123.706 76.204 122.61 74.7881 121.048 73.7762C119.485 72.7643 117.548 72.2164 115.555 72.2222H111.519L112.731 65.3433C112.791 65.0017 112.76 64.6535 112.641 64.3224C112.522 63.9914 112.317 63.6851 112.041 63.4243C111.764 63.1635 111.423 62.9543 111.039 62.8108C110.655 62.6673 110.238 62.5929 109.816 62.5926H72.7398C72.2111 62.5927 71.692 62.7092 71.2374 62.9299C70.7827 63.1507 70.409 63.4674 70.1558 63.8469C69.9025 64.2265 69.7789 64.6548 69.798 65.0868C69.817 65.5189 69.9781 65.9388 70.2642 66.3024L77.1739 75.0728L71.1378 95.9318C70.6381 97.6496 70.6095 99.4365 71.0541 101.164C71.4986 102.892 72.4053 104.518 73.7092 105.926H58.8889V33.7037H73.6111V36.1041C73.6137 38.0189 74.5452 39.8547 76.2012 41.2087C77.8572 42.5627 80.1025 43.3243 82.4444 43.3264H85.3889V45.7265C85.3944 47.2153 85.9634 48.6662 87.0178 49.88C88.0722 51.0938 89.5603 52.011 91.2778 52.5056V55.3567C91.2778 55.9951 91.588 56.6075 92.1402 57.0589C92.6924 57.5104 93.4413 57.7641 94.2222 57.7641C95.0031 57.7641 95.7521 57.5104 96.3043 57.0589C96.8565 56.6075 97.1667 55.9951 97.1667 55.3567V52.5056C98.8841 52.0109 100.372 51.0938 101.427 49.8801C102.481 48.6663 103.05 47.2155 103.056 45.7268V43.3266H106C108.342 43.3245 110.587 42.5629 112.243 41.2089C113.899 39.855 114.831 38.0192 114.833 36.1044V33.7037H132.5C133.281 33.7037 134.03 33.4501 134.582 32.9986C135.134 32.5471 135.444 31.9348 135.444 31.2963V12.037C135.44 8.84577 133.887 5.78629 131.127 3.52972C128.367 1.27315 124.625 0.00375905 120.722 0H14.7222C10.8191 0.00375905 7.07707 1.27315 4.31712 3.52972C1.55716 5.78629 0.0045976 8.84577 0 12.037V122.778C0.00257191 124.693 0.93405 126.528 2.59006 127.882C4.24608 129.236 6.49138 129.998 8.83333 130H150.167C152.509 129.998 154.754 129.236 156.41 127.882C158.066 126.528 158.997 124.693 159 122.778V117.963C159 117.324 158.69 116.712 158.138 116.261C157.585 115.809 156.836 115.556 156.056 115.556ZM106.417 67.4074L105.569 72.2222H81.9297L78.137 67.4074H106.417ZM78.5395 103.185C77.7094 102.331 77.1278 101.335 76.8389 100.27C76.5499 99.2061 76.5612 98.1019 76.8718 97.0416L82.6573 77.037H105.787L111.573 97.0426C111.879 98.103 111.888 99.2063 111.599 100.27C111.31 101.334 110.731 102.33 109.904 103.184C109.077 104.039 108.025 104.729 106.825 105.204C105.626 105.679 104.31 105.926 102.978 105.926H85.4666C84.1332 105.929 82.8165 105.684 81.6162 105.209C80.416 104.734 79.3638 104.042 78.5395 103.185ZM138.389 110.741C139.17 110.741 139.918 110.995 140.47 111.446C141.022 111.898 141.333 112.51 141.333 113.148V115.556H58.8889V110.741H138.389ZM97.1667 45.7265C97.1667 46.365 96.8565 46.9774 96.3043 47.4288C95.7521 47.8803 95.0031 48.1339 94.2222 48.1339C93.4413 48.1339 92.6924 47.8803 92.1402 47.4288C91.588 46.9774 91.2778 46.365 91.2778 45.7265V43.3264H97.1667V45.7265ZM108.944 36.1041C108.944 36.7425 108.634 37.3546 108.081 37.8059C107.529 38.2573 106.781 38.5111 106 38.5115H100.154L100.111 38.5043L100.068 38.5115H88.376L88.3333 38.5043L88.2906 38.5115H82.4444C81.6637 38.5111 80.9151 38.2573 80.363 37.8059C79.8109 37.3546 79.5005 36.7425 79.5 36.1041V33.7037H108.944V36.1041ZM14.7222 4.81482H120.722C123.064 4.81692 125.309 5.5785 126.965 6.93248C128.622 8.28645 129.553 10.1222 129.556 12.037V28.8889H55.9444C55.1635 28.8889 54.4146 29.1425 53.8624 29.594C53.3102 30.0455 53 30.6578 53 31.2963V115.556H5.88889V12.037C5.89146 10.1222 6.82294 8.28645 8.47895 6.93248C10.135 5.5785 12.3803 4.81692 14.7222 4.81482ZM153.111 122.778C153.111 123.416 152.8 124.028 152.248 124.48C151.696 124.931 150.947 125.185 150.167 125.185H8.83333C8.05256 125.185 7.3039 124.931 6.75181 124.48C6.19972 124.028 5.88936 123.416 5.88889 122.778V120.37H153.111V122.778Z" fill="#B36A39"/>
<path d="M14.7223 110.741H44.1667C44.9476 110.741 45.6966 110.487 46.2488 110.036C46.8009 109.584 47.1112 108.972 47.1112 108.333C47.1112 107.695 46.8009 107.083 46.2488 106.631C45.6966 106.18 44.9476 105.926 44.1667 105.926H14.7223C13.9414 105.926 13.1924 106.18 12.6402 106.631C12.088 107.083 11.7778 107.695 11.7778 108.333C11.7778 108.972 12.088 109.584 12.6402 110.036C13.1924 110.487 13.9414 110.741 14.7223 110.741Z" fill="#B36A39"/>
<path d="M29.4444 57.7847C31.1915 57.7847 32.8993 57.3611 34.352 56.5676C35.8046 55.774 36.9368 54.646 37.6054 53.3263C38.2739 52.0066 38.4489 50.5545 38.108 49.1535C37.7672 47.7525 36.9259 46.4657 35.6905 45.4556C34.4552 44.4456 32.8812 43.7577 31.1677 43.479C29.4542 43.2004 27.6781 43.3434 26.064 43.89C24.45 44.4367 23.0704 45.3624 22.0998 46.55C21.1292 47.7377 20.6111 49.1341 20.6111 50.5625C20.6137 52.4773 21.5451 54.3131 23.2011 55.6671C24.8572 57.021 27.1025 57.7826 29.4444 57.7847ZM29.4444 48.1551C30.0268 48.1551 30.5961 48.2963 31.0803 48.5608C31.5645 48.8253 31.9419 49.2013 32.1647 49.6412C32.3876 50.0811 32.4459 50.5652 32.3323 51.0322C32.2187 51.4991 31.9382 51.9281 31.5265 52.2648C31.1147 52.6015 30.59 52.8308 30.0189 52.9236C29.4477 53.0165 28.8557 52.9689 28.3176 52.7866C27.7796 52.6044 27.3197 52.2959 26.9962 51.9C26.6727 51.5041 26.5 51.0386 26.5 50.5625C26.5005 49.9241 26.8109 49.3121 27.363 48.8607C27.9151 48.4093 28.6637 48.1555 29.4444 48.1551Z" fill="#B36A39"/>
<path d="M29.4444 77.0346C31.1915 77.0346 32.8993 76.611 34.352 75.8175C35.8046 75.0239 36.9368 73.8959 37.6054 72.5762C38.2739 71.2565 38.4489 69.8044 38.108 68.4034C37.7672 67.0024 36.9259 65.7156 35.6905 64.7055C34.4552 63.6955 32.8812 63.0076 31.1677 62.729C29.4542 62.4503 27.6781 62.5933 26.064 63.1399C24.45 63.6866 23.0704 64.6123 22.0998 65.8C21.1292 66.9876 20.6111 68.384 20.6111 69.8124C20.6137 71.7272 21.5451 73.563 23.2011 74.917C24.8572 76.2709 27.1025 77.0325 29.4444 77.0346ZM29.4444 67.405C30.0268 67.405 30.5961 67.5462 31.0803 67.8107C31.5645 68.0752 31.9419 68.4512 32.1647 68.8911C32.3876 69.331 32.4459 69.8151 32.3323 70.2821C32.2187 70.7491 31.9382 71.178 31.5265 71.5147C31.1147 71.8514 30.59 72.0807 30.0189 72.1736C29.4477 72.2664 28.8557 72.2188 28.3176 72.0366C27.7796 71.8543 27.3197 71.5458 26.9962 71.1499C26.6727 70.754 26.5 70.2885 26.5 69.8124C26.5005 69.1741 26.8109 68.562 27.363 68.1106C27.9151 67.6592 28.6637 67.4054 29.4444 67.405Z" fill="#B36A39"/>
<path d="M29.4444 96.2893C31.1915 96.2893 32.8993 95.8658 34.352 95.0722C35.8046 94.2786 36.9368 93.1506 37.6054 91.8309C38.2739 90.5112 38.4489 89.0591 38.108 87.6581C37.7672 86.2571 36.9259 84.9703 35.6905 83.9602C34.4552 82.9502 32.8812 82.2623 31.1677 81.9837C29.4542 81.705 27.6781 81.848 26.064 82.3946C24.45 82.9413 23.0704 83.867 22.0998 85.0547C21.1292 86.2423 20.6111 87.6387 20.6111 89.0671C20.6137 90.9819 21.5451 92.8177 23.2011 94.1717C24.8572 95.5256 27.1025 96.2872 29.4444 96.2893ZM29.4444 86.6597C30.0268 86.6597 30.5961 86.8009 31.0803 87.0654C31.5645 87.3299 31.9419 87.7059 32.1647 88.1458C32.3876 88.5857 32.4459 89.0698 32.3323 89.5368C32.2187 90.0038 31.9382 90.4327 31.5265 90.7694C31.1147 91.1061 30.59 91.3354 30.0189 91.4283C29.4477 91.5211 28.8557 91.4735 28.3176 91.2913C27.7796 91.109 27.3197 90.8005 26.9962 90.4046C26.6727 90.0087 26.5 89.5432 26.5 89.0671C26.5004 88.4287 26.8108 87.8166 27.3629 87.3652C27.915 86.9138 28.6636 86.6601 29.4444 86.6597Z" fill="#B36A39"/>
<path d="M55.9444 14.4445H120.722C121.503 14.4445 122.252 14.1908 122.804 13.7393C123.356 13.2879 123.667 12.6755 123.667 12.037C123.667 11.3986 123.356 10.7862 122.804 10.3348C122.252 9.88328 121.503 9.62964 120.722 9.62964H55.9444C55.1635 9.62964 54.4146 9.88328 53.8624 10.3348C53.3102 10.7862 53 11.3986 53 12.037C53 12.6755 53.3102 13.2879 53.8624 13.7393C54.4146 14.1908 55.1635 14.4445 55.9444 14.4445Z" fill="#B36A39"/>
</svg>
