<svg width="169" height="119" viewBox="0 0 169 119" fill="none" xmlns="http://www.w3.org/2000/svg">
<path d="M51.522 82.9935C55.7555 78.4614 60.8743 74.8438 66.5627 72.3628C72.2508 69.8826 78.3924 68.5936 84.6003 68.5718C90.8073 68.5501 96.9534 69.7983 102.659 72.2394C108.364 74.6805 113.51 78.2619 117.775 82.764M31.5891 60.3621C38.3627 53.1114 46.5528 47.3238 55.6541 43.3544C64.7554 39.3853 74.5737 37.3208 84.5049 37.2861C94.437 37.2515 104.266 39.2495 113.395 43.155C122.524 47.0608 130.758 52.7921 137.583 59.9956M5 39.6195C15.1604 28.7436 27.4456 20.061 41.0975 14.1075C54.7495 8.15396 69.4717 5.05264 84.3695 5.00066C99.2681 4.94877 114.029 7.94568 127.722 13.804C141.416 19.6623 153.763 28.2643 164 39.0692M84.7584 114C79.7392 114 75.6706 109.939 75.6706 104.929C75.6706 99.9185 79.7392 95.8573 84.7584 95.8573C89.7776 95.8573 93.8463 99.9185 93.8463 104.929C93.8463 109.939 89.7776 114 84.7584 114Z" stroke="#C8743D" stroke-width="9" stroke-linecap="round" stroke-linejoin="round"/>
</svg>
